<!-- Generator: Adobe Illustrator 19.2.1, SVG Export Plug-In  -->
<svg version="1.1"
	 xmlns="http://www.w3.org/2000/svg" xmlns:xlink="http://www.w3.org/1999/xlink" xmlns:a="http://ns.adobe.com/AdobeSVGViewerExtensions/3.0/"
	 x="0px" y="0px" width="50px" height="50px" viewBox="0 0 50 50" style="enable-background:new 0 0 50 50;" xml:space="preserve">
<style type="text/css">
	.st0{fill:#414042;}
	.st1{fill:#FFFFFF;}
</style>
<defs>
</defs>
<g>
	<path class="st0" d="M25,50c13.809,0,25-11.194,25-25.001C50,11.193,38.809,0,25,0C11.192,0,0,11.193,0,24.999
		C0,38.806,11.192,50,25,50"/>
	<path class="st1" d="M18.004,35.456H13.13V19.861h4.873V35.456z M15.442,17.91h-0.035c-1.763,0-2.907-1.192-2.907-2.702
		c0-1.54,1.178-2.708,2.976-2.708c1.797,0,2.903,1.165,2.938,2.704C18.415,16.714,17.274,17.91,15.442,17.91z M37.5,35.456h-5.526
		v-8.07c0-2.112-0.863-3.554-2.765-3.554c-1.454,0-2.262,0.972-2.638,1.911c-0.141,0.336-0.119,0.805-0.119,1.275v8.438h-5.474
		c0,0,0.071-14.295,0-15.595h5.474v2.447c0.324-1.07,2.072-2.597,4.865-2.597c3.462,0,6.183,2.244,6.183,7.073V35.456z"/>
</g>
</svg>