<!-- Generator: Adobe Illustrator 19.2.1, SVG Export Plug-In  -->
<svg version="1.1"
	 xmlns="http://www.w3.org/2000/svg" xmlns:xlink="http://www.w3.org/1999/xlink" xmlns:a="http://ns.adobe.com/AdobeSVGViewerExtensions/3.0/"
	 x="0px" y="0px" width="50px" height="49.999px" viewBox="0 0 50 49.999" style="enable-background:new 0 0 50 49.999;"
	 xml:space="preserve">
<style type="text/css">
	.st0{fill:#414042;}
	.st1{fill:#FFFFFF;}
</style>
<defs>
</defs>
<g>
	<path class="st0" d="M25,49.999c13.807,0,25-11.192,25-25C50,11.194,38.807,0,25,0C11.193,0,0,11.194,0,25
		C0,38.807,11.193,49.999,25,49.999"/>
	<path class="st1" d="M37.543,18.451c-0.921,0.408-1.912,0.685-2.951,0.809c1.062-0.636,1.876-1.642,2.259-2.841
		c-0.993,0.589-2.091,1.016-3.263,1.245c-0.935-0.998-2.272-1.622-3.75-1.622c-2.836,0-5.136,2.301-5.136,5.137
		c0,0.403,0.044,0.794,0.132,1.17c-4.27-0.215-8.054-2.258-10.59-5.368c-0.442,0.761-0.696,1.643-0.696,2.585
		c0,1.781,0.907,3.354,2.286,4.276c-0.842-0.026-1.635-0.259-2.328-0.642v0.063c0,2.49,1.771,4.567,4.123,5.038
		c-0.431,0.121-0.885,0.181-1.354,0.181c-0.331,0-0.654-0.031-0.966-0.091c0.653,2.04,2.55,3.527,4.799,3.566
		c-1.758,1.379-3.974,2.2-6.381,2.2c-0.415,0-0.825-0.023-1.226-0.071c2.274,1.456,4.975,2.307,7.876,2.307
		c9.452,0,14.618-7.827,14.618-14.618c0-0.223-0.004-0.446-0.014-0.665C35.984,20.385,36.856,19.48,37.543,18.451"/>
</g>
</svg>