<!-- Generator: Adobe Illustrator 19.2.1, SVG Export Plug-In  -->
<svg version="1.1"
	 xmlns="http://www.w3.org/2000/svg" xmlns:xlink="http://www.w3.org/1999/xlink" xmlns:a="http://ns.adobe.com/AdobeSVGViewerExtensions/3.0/"
	 x="0px" y="0px" width="50px" height="49.999px" viewBox="0 0 50 49.999" style="enable-background:new 0 0 50 49.999;"
	 xml:space="preserve">
<style type="text/css">
	.st0{fill:#414042;}
	.st1{fill:#FFFFFF;}
</style>
<defs>
</defs>
<g>
	<path class="st0" d="M25,49.999c13.807,0,25-11.192,25-25C50,11.194,38.806,0,25,0C11.193,0,0,11.194,0,25
		C0,38.807,11.193,49.999,25,49.999"/>
	<path class="st1" d="M18.969,20.766h2.585v-2.512c0-1.108,0.028-2.816,0.833-3.874c0.848-1.12,2.011-1.882,4.012-1.882
		c3.261,0,4.634,0.465,4.634,0.465l-0.646,3.829c0,0-1.077-0.311-2.082-0.311c-1.005,0-1.905,0.36-1.905,1.365v2.92h4.122
		l-0.288,3.74h-3.834v12.993h-4.845V24.507h-2.585V20.766z"/>
</g>
</svg>