<!-- Generator: Adobe Illustrator 19.2.1, SVG Export Plug-In  -->
<svg version="1.1"
	 xmlns="http://www.w3.org/2000/svg" xmlns:xlink="http://www.w3.org/1999/xlink" xmlns:a="http://ns.adobe.com/AdobeSVGViewerExtensions/3.0/"
	 x="0px" y="0px" width="41.592px" height="41.592px" viewBox="0 0 41.592 41.592"
	 style="enable-background:new 0 0 41.592 41.592;" xml:space="preserve">
<style type="text/css">
	.st0{fill:#FF0033;}
</style>
<defs>
</defs>
<g>
	<path class="st0" d="M41.592,41.592H0V0h41.592V41.592z M30.539,26.85l-7.058-16.686c-0.127-0.302-0.496-0.546-0.823-0.546h-3.643
		c-0.327,0-0.696,0.245-0.823,0.546L11.14,26.85c-0.127,0.302,0.035,0.546,0.362,0.546h4.432l-3.469,8.131
		c-0.061,0.142,0.064,0.208,0.16,0.1l10.598-12.055c0.217-0.246,0.127-0.445-0.201-0.445h-5.358l3.13-7.975l4.568,11.692
		c0.118,0.305,0.481,0.552,0.806,0.552h4.01C30.504,27.396,30.667,27.152,30.539,26.85z"/>
</g>
</svg>