<!-- Generator: Adobe Illustrator 19.2.1, SVG Export Plug-In  -->
<svg version="1.1"
	 xmlns="http://www.w3.org/2000/svg" xmlns:xlink="http://www.w3.org/1999/xlink" xmlns:a="http://ns.adobe.com/AdobeSVGViewerExtensions/3.0/"
	 x="0px" y="0px" width="50px" height="50px" viewBox="0 0 50 50" style="enable-background:new 0 0 50 50;" xml:space="preserve">
<style type="text/css">
	.st0{fill:#414042;}
	.st1{fill:#FFFFFF;}
</style>
<defs>
</defs>
<g>
	<path class="st0" d="M25,50c13.808,0,25-11.194,25-25.001C50,11.193,38.808,0,25,0C11.191,0,0,11.193,0,24.999
		C0,38.806,11.191,50,25,50"/>
	<path class="st1" d="M32.671,12.5H17.335c-2.664,0-4.832,2.167-4.832,4.831v5.103v10.235c0,2.664,2.168,4.831,4.832,4.831h15.336
		c2.664,0,4.832-2.167,4.832-4.831V22.434v-5.103C37.503,14.667,35.335,12.5,32.671,12.5z M34.058,15.382l0.553-0.002v0.55v3.687
		l-4.225,0.014l-0.014-4.237L34.058,15.382z M21.436,22.434c0.8-1.108,2.099-1.835,3.567-1.835c1.468,0,2.768,0.726,3.567,1.835
		c0.523,0.723,0.834,1.608,0.834,2.566c0,2.426-1.975,4.4-4.401,4.4s-4.4-1.974-4.4-4.4C20.603,24.042,20.915,23.158,21.436,22.434z
		 M35.067,32.669c0,1.321-1.074,2.395-2.396,2.395H17.335c-1.322,0-2.396-1.074-2.396-2.395V22.434h3.732
		c-0.323,0.793-0.504,1.659-0.504,2.566c0,3.769,3.066,6.836,6.836,6.836c3.769,0,6.836-3.068,6.836-6.836
		c0-0.907-0.182-1.773-0.504-2.566h3.732V32.669z"/>
</g>
</svg>