<?xml version="1.0" encoding="UTF-8" standalone="no"?>
<svg viewBox="0 0 37 47" version="1.1" xmlns="http://www.w3.org/2000/svg" xmlns:xlink="http://www.w3.org/1999/xlink">
    <g stroke="none" stroke-width="1" fill="none" fill-rule="evenodd">
        <path d="M34.5012902,29.9804706 L21.9748502,0.949676471 C21.7520702,0.424382353 21.0964202,0 20.5183202,0 L14.0520602,0 C13.4711402,0 12.8169002,0.424382353 12.5927102,0.949676471 L0.0761401722,29.9804706 C-0.148049828,30.5043824 0.139590172,30.9301471 0.719100172,30.9301471 L8.58408017,30.9301471 L2.42802017,45.0757647 C2.31804017,45.3232059 2.54082017,45.4379412 2.71002017,45.2499412 L21.5208302,24.2755 C21.9001202,23.8483529 21.7422002,23.5013824 21.1598702,23.5013824 L11.6536502,23.5013824 L17.2076402,9.62532353 L25.3123202,29.9694118 C25.5224102,30.5002353 26.1639602,30.9301471 26.7448802,30.9301471 L33.8583302,30.9301471 C34.4392502,30.9301471 34.7283002,30.5043824 34.5012902,29.9804706" id="Imported-Layers-4" fill="#22252B"></path>
    </g>
</svg>
