<?xml version="1.0" encoding="UTF-8" standalone="no"?>
<svg viewBox="0 0 14 20" version="1.1" xmlns="http://www.w3.org/2000/svg" xmlns:xlink="http://www.w3.org/1999/xlink">
    <defs>
        <linearGradient x1="50%" y1="0%" x2="50%" y2="100%" id="linearGradient-1">
            <stop stop-color="#FFFFFF" offset="0%"></stop>
            <stop stop-color="#22252B" offset="100%"></stop>
        </linearGradient>
    </defs>
    <g stroke="none" stroke-width="1" fill="none" fill-rule="evenodd">
        <path d="M13.1878539,7.60095842 C13.1215061,7.46706953 12.9060278,7.15706953 12.3326365,7.15706953 L7.95733214,7.15706953 L10.7080278,0.758180643 C10.817593,0.503736199 10.7080278,0.215402866 10.4505495,0.0765139768 C10.1924626,-0.061263801 9.86254953,-0.0090415788 9.67202779,0.201513977 L0.181853879,10.7004029 C0.144114749,10.7420695 0.113679966,10.7881806 0.0905495313,10.8376251 C-0.0494504687,11.141514 -0.0263200339,11.4581806 0.154462575,11.7070695 C0.335245184,11.9570695 0.646288662,12.0992918 1.00724518,12.0992918 L4.44333214,12.0992918 L1.39437562,18.6220695 C1.29333214,18.8359584 1.31159301,19.0731806 1.44307127,19.2559584 C1.56907127,19.4304029 1.78150605,19.5342918 2.01159301,19.5342918 C2.21915823,19.5342918 2.42185388,19.4481806 2.56733214,19.2970695 L12.987593,8.47929175 C13.3668104,8.08706953 13.253593,7.73429175 13.1878539,7.60095842" id="Imported-Layers" fill="url(#linearGradient-1)"></path>
    </g>
</svg>
